<?xml version="1.0" encoding="UTF-8"?><svg id="a" xmlns="http://www.w3.org/2000/svg" width="82mm" height="43.6626mm" viewBox="0 0 232.4409 123.768"><defs><style>.b{fill:#f26649;}.c{fill:#231f20;}.d{fill:#fff;}</style></defs><path class="b" d="M232.4409,61.884c0,34.178-27.706,61.884-61.884,61.884s-61.884-27.706-61.884-61.884S136.3789,0,170.5569,0s61.884,27.706,61.884,61.884"/><path class="c" d="M0,56.0712c0-1.819,1.136-3.032,2.727-3.032,1.403,0,2.312.758,2.501,2.009,1.061-1.478,2.69-2.236,5.267-2.236,4.282,0,7.464,2.728,7.464,7.351v10.457c0,1.818-1.137,3.031-2.728,3.031-1.592,0-2.728-1.213-2.728-3.031v-9.51c0-2.539-1.591-3.751-3.561-3.751-2.236,0-3.487,1.629-3.487,3.751v9.51c0,1.818-1.136,3.031-2.728,3.031-1.591,0-2.727-1.213-2.727-3.031v-14.549Z"/><path class="c" d="M20.9958,56.0714c0-1.819,1.136-3.032,2.728-3.032,1.591,0,2.728,1.213,2.728,3.032v14.549c0,1.818-1.137,3.031-2.728,3.031-1.592,0-2.728-1.213-2.728-3.031v-14.549ZM26.7928,47.8484c0,1.705-1.364,3.145-3.069,3.145-1.63,0-3.069-1.477-3.069-3.145,0-1.553,1.439-2.993,3.069-2.993,1.629,0,3.069,1.402,3.069,2.993"/><path class="c" d="M40.9637,59.178c-1.023,0-3.107-1.592-4.888-1.592-.985,0-1.856.455-1.856,1.516,0,2.539,9.472,2.159,9.472,8.374,0,3.637-3.068,6.402-7.767,6.402-3.069,0-7.616-1.743-7.616-4.206,0-.833.834-2.424,2.35-2.424,2.121,0,3.068,1.857,5.644,1.857,1.668,0,2.161-.531,2.161-1.554,0-2.5-9.472-2.122-9.472-8.373,0-3.79,3.068-6.366,7.388-6.366,2.69,0,6.82,1.251,6.82,3.941,0,1.25-.947,2.425-2.236,2.425"/><path class="c" d="M58.5865,61.5269c-.303-2.387-1.818-4.168-4.357-4.168-2.425,0-4.054,1.857-4.319,4.168h8.676ZM50.0235,65.1639c.379,2.69,2.615,3.941,5.153,3.941,2.804,0,4.737-2.198,6.177-2.198,1.174,0,2.235,1.175,2.235,2.349,0,2.35-4.85,4.622-8.904,4.622-6.138,0-10.231-4.47-10.231-10.495,0-5.532,4.017-10.571,9.776-10.571,5.911,0,9.814,5.381,9.814,9.927,0,1.629-.72,2.425-2.388,2.425h-11.632Z"/><path class="c" d="M65.9804,47.2807c0-1.819,1.136-3.032,2.727-3.032,1.592,0,2.728,1.213,2.728,3.032v12.73l5.987-5.797c.872-.833,1.743-1.174,2.463-1.174,1.364,0,2.311,1.25,2.311,2.463,0,.796-.265,1.44-1.061,2.159l-4.85,4.32,6.404,7.502c.492.568.682,1.212.682,1.819,0,1.439-1.137,2.576-2.576,2.576-.986,0-1.744-.606-2.615-1.667l-6.668-8.222h-.077v6.631c0,1.818-1.136,3.03-2.728,3.03-1.591,0-2.727-1.212-2.727-3.03v-23.34Z"/><path class="c" d="M89.5883,63.3828c0,2.615,1.365,5.495,4.32,5.495s4.32-2.88,4.32-5.495-1.327-5.569-4.32-5.569-4.32,2.955-4.32,5.569M103.6833,63.3828c0,5.684-3.903,10.496-9.775,10.496s-9.775-4.812-9.775-10.496c0-5.531,4.016-10.571,9.775-10.571s9.775,5.04,9.775,10.571"/><path class="d" d="M125.0227,53.0396c3.41,0,5.418,1.174,5.418,2.539,0,.682-.568,1.402-1.364,1.402-1.288,0-1.78-1.062-4.054-1.062-4.13,0-5.759,4.017-5.759,7.427s1.629,7.426,5.759,7.426c2.349,0,2.955-1.136,4.016-1.136.758,0,1.288.492,1.288,1.401,0,1.251-1.856,2.615-5.304,2.615-6.138,0-9.093-4.963-9.093-10.306s2.955-10.306,9.093-10.306"/><path class="d" d="M146.8133,62.1334c0-2.88-1.668-6.214-5.342-6.214-4.13-.152-5.608,3.144-5.722,6.214h11.064ZM135.7493,64.6334c0,3.448,2.198,6.138,5.949,6.138,4.432,0,5.57-2.728,6.82-2.728.606,0,1.213.531,1.213,1.478,0,1.629-4.13,4.13-8.071,4.13-6.442,0-9.245-4.963-9.245-10.306,0-5.456,3.41-10.306,9.056-10.306,5.493,0,8.676,4.964,8.676,9.814,0,1.174-.416,1.78-1.857,1.78h-12.541Z"/><path class="d" d="M153.3341,54.8207c0-1.099.644-1.781,1.667-1.781s1.667.682,1.667,1.781v.795l.076.076c1.478-1.894,3.561-2.652,5.57-2.652,3.107,0,7.009,1.97,7.009,7.653v11.177c0,1.1-.644,1.781-1.667,1.781s-1.667-.681-1.667-1.781v-10.987c0-3.524-2.463-4.964-4.66-4.964s-4.661,1.44-4.661,4.964v10.987c0,1.1-.644,1.781-1.667,1.781s-1.667-.681-1.667-1.781v-17.049Z"/><path class="d" d="M174.7847,48.9096c0-1.098.644-1.781,1.667-1.781,1.022,0,1.667.683,1.667,1.781v4.357h1.364c1.099,0,1.667.531,1.667,1.44s-.568,1.44-1.667,1.44h-1.364v15.723c0,1.1-.645,1.782-1.667,1.782-1.023,0-1.667-.682-1.667-1.782v-15.723h-1.365c-1.098,0-1.667-.531-1.667-1.44s.569-1.44,1.667-1.44h1.365v-4.357Z"/><path class="d" d="M183.5772,54.8207c0-1.099.644-1.781,1.667-1.781s1.667.682,1.667,1.781v1.705h.076c.758-1.554,2.614-3.486,4.546-3.486,1.175,0,1.857.758,1.857,1.705s-.682,1.554-2.084,1.819c-1.97.34-4.395,1.818-4.395,5.721v9.585c0,1.1-.644,1.781-1.667,1.781s-1.667-.681-1.667-1.781v-17.049Z"/><path class="d" d="M203.5092,70.7721c4.092,0,5.531-4.016,5.531-7.426s-1.439-7.427-5.531-7.427-5.532,4.017-5.532,7.427,1.44,7.426,5.532,7.426M212.1852,72.0221c0,1.175-.909,1.629-1.553,1.629-.683,0-1.554-.454-1.554-1.629v-1.402h-.076c-1.44,2.046-3.334,3.031-5.493,3.031-5.684,0-8.866-4.963-8.866-10.305s3.182-10.307,8.866-10.307c2.31,0,3.94.986,5.493,2.691h.076v-1.062c0-1.174.871-1.629,1.554-1.629.644,0,1.553.455,1.553,1.629v17.354Z"/><path class="d" d="M219.9203,71.8701c0,1.099-.644,1.781-1.667,1.781s-1.667-.682-1.667-1.781v-25.916c0-1.098.644-1.78,1.667-1.78s1.667.682,1.667,1.78v25.916Z"/></svg>